<?xml version="1.0" encoding="UTF-8" standalone="no"?>
<!DOCTYPE svg PUBLIC "-//W3C//DTD SVG 1.1//EN"
 "http://www.w3.org/Graphics/SVG/1.1/DTD/svg11.dtd">
<!-- Generated by graphviz version 2.36.0 (20140111.2315)
 -->
<!-- Title: G Pages: 1 -->
<svg width="335pt" height="146pt"
 viewBox="0.00 0.00 335.20 146.20" xmlns="http://www.w3.org/2000/svg" xmlns:xlink="http://www.w3.org/1999/xlink">
<g id="graph0" class="graph" transform="scale(1 1) rotate(0) translate(21.6 124.6)">
<title>G</title>
<polygon fill="#111111" stroke="none" points="-21.6,21.6 -21.6,-124.6 313.6,-124.6 313.6,21.6 -21.6,21.6"/>
<!-- core.js -->
<g id="node1" class="node"><title>core.js</title>
<path fill="none" stroke="#c6c5fe" d="M161.333,-102.5C161.333,-102.5 118.667,-102.5 118.667,-102.5 114.833,-102.5 111,-98.6667 111,-94.8333 111,-94.8333 111,-87.1667 111,-87.1667 111,-83.3333 114.833,-79.5 118.667,-79.5 118.667,-79.5 161.333,-79.5 161.333,-79.5 165.167,-79.5 169,-83.3333 169,-87.1667 169,-87.1667 169,-94.8333 169,-94.8333 169,-98.6667 165.167,-102.5 161.333,-102.5"/>
<text text-anchor="middle" x="140" y="-87.3" font-family="Arial" font-size="14.00" fill="#c6c5fe">core.js</text>
</g>
<!-- diff.js -->
<g id="node2" class="node"><title>diff.js</title>
<path fill="none" stroke="#cfffac" d="M273.333,-103.5C273.333,-103.5 234.667,-103.5 234.667,-103.5 230.833,-103.5 227,-99.6667 227,-95.8333 227,-95.8333 227,-88.1667 227,-88.1667 227,-84.3333 230.833,-80.5 234.667,-80.5 234.667,-80.5 273.333,-80.5 273.333,-80.5 277.167,-80.5 281,-84.3333 281,-88.1667 281,-88.1667 281,-95.8333 281,-95.8333 281,-99.6667 277.167,-103.5 273.333,-103.5"/>
<text text-anchor="middle" x="254" y="-88.3" font-family="Arial" font-size="14.00" fill="#cfffac">diff.js</text>
</g>
<!-- core.js&#45;&gt;diff.js -->
<g id="edge1" class="edge"><title>core.js&#45;&gt;diff.js</title>
<path fill="none" stroke="#757575" d="M169.262,-91.2523C183.584,-91.3802 201.143,-91.537 216.477,-91.6739"/>
<polygon fill="#757575" stroke="#757575" points="216.639,-95.1754 226.67,-91.7649 216.702,-88.1757 216.639,-95.1754"/>
</g>
<!-- helpers.js -->
<g id="node3" class="node"><title>helpers.js</title>
<path fill="none" stroke="#cfffac" d="M284.333,-62.5C284.333,-62.5 223.667,-62.5 223.667,-62.5 219.833,-62.5 216,-58.6667 216,-54.8333 216,-54.8333 216,-47.1667 216,-47.1667 216,-43.3333 219.833,-39.5 223.667,-39.5 223.667,-39.5 284.333,-39.5 284.333,-39.5 288.167,-39.5 292,-43.3333 292,-47.1667 292,-47.1667 292,-54.8333 292,-54.8333 292,-58.6667 288.167,-62.5 284.333,-62.5"/>
<text text-anchor="middle" x="254" y="-47.3" font-family="Arial" font-size="14.00" fill="#cfffac">helpers.js</text>
</g>
<!-- core.js&#45;&gt;helpers.js -->
<g id="edge2" class="edge"><title>core.js&#45;&gt;helpers.js</title>
<path fill="none" stroke="#757575" d="M169.262,-80.9063C182.11,-76.318 197.562,-70.7992 211.677,-65.7583"/>
<polygon fill="#757575" stroke="#757575" points="212.946,-69.0216 221.186,-62.3621 210.592,-62.4294 212.946,-69.0216"/>
</g>
<!-- defaults.js -->
<g id="node4" class="node"><title>defaults.js</title>
<path fill="none" stroke="#cfffac" d="M172.333,-22.5C172.333,-22.5 107.667,-22.5 107.667,-22.5 103.833,-22.5 100,-18.6667 100,-14.8333 100,-14.8333 100,-7.16667 100,-7.16667 100,-3.33333 103.833,0.5 107.667,0.5 107.667,0.5 172.333,0.5 172.333,0.5 176.167,0.5 180,-3.33333 180,-7.16667 180,-7.16667 180,-14.8333 180,-14.8333 180,-18.6667 176.167,-22.5 172.333,-22.5"/>
<text text-anchor="middle" x="140" y="-7.3" font-family="Arial" font-size="14.00" fill="#cfffac">defaults.js</text>
</g>
<!-- index.js -->
<g id="node5" class="node"><title>index.js</title>
<path fill="none" stroke="#c6c5fe" d="M56.3333,-62.5C56.3333,-62.5 7.66667,-62.5 7.66667,-62.5 3.83333,-62.5 0,-58.6667 0,-54.8333 0,-54.8333 0,-47.1667 0,-47.1667 0,-43.3333 3.83333,-39.5 7.66667,-39.5 7.66667,-39.5 56.3333,-39.5 56.3333,-39.5 60.1667,-39.5 64,-43.3333 64,-47.1667 64,-47.1667 64,-54.8333 64,-54.8333 64,-58.6667 60.1667,-62.5 56.3333,-62.5"/>
<text text-anchor="middle" x="32" y="-47.3" font-family="Arial" font-size="14.00" fill="#c6c5fe">index.js</text>
</g>
<!-- index.js&#45;&gt;core.js -->
<g id="edge3" class="edge"><title>index.js&#45;&gt;core.js</title>
<path fill="none" stroke="#757575" d="M63.0918,-62.3554C74.8762,-66.8023 88.5315,-71.9553 100.984,-76.6545"/>
<polygon fill="#757575" stroke="#757575" points="100.063,-80.0477 110.655,-80.3037 102.535,-73.4985 100.063,-80.0477"/>
</g>
<!-- index.js&#45;&gt;helpers.js -->
<g id="edge5" class="edge"><title>index.js&#45;&gt;helpers.js</title>
<path fill="none" stroke="#757575" d="M64.054,-51C100.929,-51 162.821,-51 205.672,-51"/>
<polygon fill="#757575" stroke="#757575" points="205.858,-54.5001 215.858,-51 205.858,-47.5001 205.858,-54.5001"/>
</g>
<!-- index.js&#45;&gt;defaults.js -->
<g id="edge4" class="edge"><title>index.js&#45;&gt;defaults.js</title>
<path fill="none" stroke="#757575" d="M63.0918,-39.6446C74.3932,-35.3799 87.4154,-30.4659 99.4475,-25.9255"/>
<polygon fill="#757575" stroke="#757575" points="100.713,-29.189 108.833,-22.3838 98.2412,-22.6398 100.713,-29.189"/>
</g>
</g>
</svg>
