<?xml version="1.0" encoding="UTF-8" standalone="no"?>
<!DOCTYPE svg PUBLIC "-//W3C//DTD SVG 1.1//EN"
 "http://www.w3.org/Graphics/SVG/1.1/DTD/svg11.dtd">
<!-- Generated by graphviz version 2.40.1 (20161225.0304)
 -->
<!-- Title: %0 Pages: 1 -->
<svg width="217pt" height="54pt"
 viewBox="0.00 0.00 217.38 54.40" xmlns="http://www.w3.org/2000/svg" xmlns:xlink="http://www.w3.org/1999/xlink">
<g id="graph0" class="graph" transform="scale(1 1) rotate(0) translate(4 50.4)">
<title>%0</title>
<polygon fill="#ffffff" stroke="transparent" points="-4,4 -4,-50.4 213.3766,-50.4 213.3766,4 -4,4"/>
<text text-anchor="middle" x="104.6883" y="-28" font-family="Roboto Condensed, sans-serif" font-size="16.00" fill="#000000">redux&#45;logger</text>
<!-- redux&#45;logger@3.0.6 -->
<g id="node1" class="node">
<title>redux&#45;logger@3.0.6</title>
<path fill="none" stroke="#000000" d="M88.4401,-19.3011C88.4401,-19.3011 6.4982,-19.3011 6.4982,-19.3011 3.2645,-19.3011 .0308,-16.0674 .0308,-12.8337 .0308,-12.8337 .0308,-6.3663 .0308,-6.3663 .0308,-3.1326 3.2645,.1011 6.4982,.1011 6.4982,.1011 88.4401,.1011 88.4401,.1011 91.6738,.1011 94.9075,-3.1326 94.9075,-6.3663 94.9075,-6.3663 94.9075,-12.8337 94.9075,-12.8337 94.9075,-16.0674 91.6738,-19.3011 88.4401,-19.3011"/>
<text text-anchor="middle" x="47.4691" y="-6.3" font-family="Roboto Condensed, sans-serif" font-size="11.00" fill="#000000">redux&#45;logger@3.0.6</text>
</g>
<!-- deep&#45;diff@1.0.2 -->
<g id="node2" class="node">
<title>deep&#45;diff@1.0.2</title>
<path fill="none" stroke="#000000" d="M203.1296,-19.3011C203.1296,-19.3011 137.1853,-19.3011 137.1853,-19.3011 133.9516,-19.3011 130.7179,-16.0674 130.7179,-12.8337 130.7179,-12.8337 130.7179,-6.3663 130.7179,-6.3663 130.7179,-3.1326 133.9516,.1011 137.1853,.1011 137.1853,.1011 203.1296,.1011 203.1296,.1011 206.3633,.1011 209.597,-3.1326 209.597,-6.3663 209.597,-6.3663 209.597,-12.8337 209.597,-12.8337 209.597,-16.0674 206.3633,-19.3011 203.1296,-19.3011"/>
<text text-anchor="middle" x="170.1574" y="-6.3" font-family="Roboto Condensed, sans-serif" font-size="11.00" fill="#000000">deep&#45;diff@1.0.2</text>
</g>
<!-- redux&#45;logger@3.0.6&#45;&gt;deep&#45;diff@1.0.2 -->
<g id="edge1" class="edge">
<title>redux&#45;logger@3.0.6&#45;&gt;deep&#45;diff@1.0.2</title>
<path fill="none" stroke="#000000" d="M95.255,-9.6C103.5781,-9.6 112.2517,-9.6 120.6206,-9.6"/>
<polygon fill="#000000" stroke="#000000" points="120.6337,-13.1001 130.6337,-9.6 120.6337,-6.1001 120.6337,-13.1001"/>
</g>
</g>
</svg>
